<svg width="24" height="23" viewBox="0 0 24 23" fill="none" xmlns="http://www.w3.org/2000/svg">
<g clip-path="url(#clip0_159_3785)">
<path d="M19.5617 0.0517192C19.5897 0.0494828 19.6178 0.047634 19.646 0.0461732C19.914 0.0317009 20.5184 0.00735583 20.7133 0.183506C20.7673 0.276325 20.7289 0.526347 20.7111 0.635999C20.5044 1.91086 20.2587 3.20229 20.0939 4.48315C19.8678 6.21735 19.7207 7.96094 19.6533 9.70852C19.6056 10.6976 19.6563 11.6988 19.7286 12.6898C19.9593 15.85 20.8302 19.1688 23.1791 21.4343C23.4342 21.6803 23.7004 21.8968 23.9404 22.161C23.3873 22.1713 22.8701 21.9994 22.3454 21.8315C21.0519 21.4173 19.881 20.819 18.7456 20.0752C18.4461 19.8517 18.1406 19.648 17.8436 19.4167C14.2125 16.5892 12.2697 12.2519 11.5475 7.79084C11.3923 6.80535 11.2881 5.8125 11.2354 4.81626C11.1691 3.75249 11.1163 2.59304 11.2012 1.53598C11.3156 1.3622 11.485 1.26786 11.6875 1.21834C13.5862 0.754012 15.5402 0.482149 17.4759 0.22416C18.1637 0.132502 18.8735 0.10794 19.5617 0.0517192Z" fill="#1570EF"/>
<path d="M9.42268 6.31104C9.86074 6.34454 9.83048 7.05898 9.92 7.39798C9.9786 7.61991 10.0156 7.89131 10.0665 8.12253C10.1952 8.70436 10.3358 9.28349 10.4883 9.85953C10.8055 11.0552 11.199 12.2293 11.6662 13.3747C12.8934 16.3511 14.715 19.0697 17.4938 20.7889C17.7915 20.9731 19.7161 22.0232 19.6975 22.2178C19.5442 22.2892 18.99 22.2336 18.8048 22.2211C17.33 22.1211 15.9073 21.8519 14.4908 21.4249C13.179 21.0135 11.9292 20.4758 10.7548 19.7586C7.03371 17.486 4.46891 13.6653 3.45495 9.45037C3.38379 9.1546 3.2289 8.70407 3.40371 8.4291C3.64332 8.05217 7.02828 6.91368 7.60969 6.74584C8.20897 6.57285 8.8128 6.43995 9.42268 6.31104Z" fill="#1570EF"/>
<path d="M3.51689 14.0974C3.57731 14.0948 3.66836 14.0888 3.70298 14.1396C4.03695 14.6229 4.27106 15.1579 4.58645 15.6621C5.37832 16.9279 6.29422 18.1123 7.43825 19.0758C8.69623 20.1354 10.0946 20.9678 11.618 21.5821C11.7537 21.6368 12.0455 21.7584 12.101 21.8981L12.0815 21.943C11.762 22.1473 9.28202 21.9585 8.7351 21.9393C8.55628 21.9025 8.36433 21.8937 8.18244 21.8672C7.80414 21.8119 7.425 21.7473 7.04871 21.6796C4.6727 21.2524 2.0911 20.071 0.68759 18.0379C0.499037 17.7648 0.0180599 16.8995 0.0941484 16.59C0.204093 16.1429 3.02124 14.3889 3.51689 14.0974Z" fill="#1570EF"/>
</g>
<defs>
<clipPath id="clip0_159_3785">
<rect width="24" height="22.4234" fill="white"/>
</clipPath>
</defs>
</svg>
